<svg width="80" height="80" viewBox="0 0 80 80" fill="none" xmlns="http://www.w3.org/2000/svg">
<circle cx="40" cy="40" r="40" fill="black"/>
<g clip-path="url(#clip0_303_414)">
<path d="M35 25H45L48.3333 28.3333H55C55.442 28.3333 55.866 28.5089 56.1785 28.8215C56.4911 29.134 56.6667 29.558 56.6667 30V53.3333C56.6667 53.7754 56.4911 54.1993 56.1785 54.5118C55.866 54.8244 55.442 55 55 55H25C24.558 55 24.1341 54.8244 23.8215 54.5118C23.5089 54.1993 23.3333 53.7754 23.3333 53.3333V30C23.3333 29.558 23.5089 29.134 23.8215 28.8215C24.1341 28.5089 24.558 28.3333 25 28.3333H31.6667L35 25ZM40 51.6667C42.6522 51.6667 45.1957 50.6131 47.0711 48.7377C48.9464 46.8624 50 44.3188 50 41.6667C50 39.0145 48.9464 36.471 47.0711 34.5956C45.1957 32.7202 42.6522 31.6667 40 31.6667C37.3478 31.6667 34.8043 32.7202 32.9289 34.5956C31.0536 36.471 30 39.0145 30 41.6667C30 44.3188 31.0536 46.8624 32.9289 48.7377C34.8043 50.6131 37.3478 51.6667 40 51.6667V51.6667ZM40 48.3333C38.2319 48.3333 36.5362 47.631 35.286 46.3807C34.0357 45.1305 33.3333 43.4348 33.3333 41.6667C33.3333 39.8986 34.0357 38.2029 35.286 36.9526C36.5362 35.7024 38.2319 35 40 35C41.7681 35 43.4638 35.7024 44.714 36.9526C45.9643 38.2029 46.6667 39.8986 46.6667 41.6667C46.6667 43.4348 45.9643 45.1305 44.714 46.3807C43.4638 47.631 41.7681 48.3333 40 48.3333Z" fill="white"/>
</g>
<defs>
<clipPath id="clip0_303_414">
<rect width="40" height="40" fill="white" transform="translate(20 20)"/>
</clipPath>
</defs>
</svg>
