<svg width="189" height="36" viewBox="0 0 189 36" fill="none" xmlns="http://www.w3.org/2000/svg">
<path d="M0 25.0312V27C0 28.6875 4.03125 30 9 30C13.9688 30 18 28.6875 18 27V25.0312C16.0312 26.3906 12.5156 27 9 27C5.4375 27 1.92188 26.3906 0 25.0312ZM15 12C19.9688 12 24 10.6875 24 9C24 7.35938 19.9688 6 15 6C10.0312 6 6 7.35938 6 9C6 10.6875 10.0312 12 15 12ZM0 20.1094V22.5C0 24.1875 4.03125 25.5 9 25.5C13.9688 25.5 18 24.1875 18 22.5V20.1094C16.0312 21.7031 12.5156 22.5 9 22.5C5.4375 22.5 1.92188 21.7031 0 20.1094ZM19.5 20.625C22.1719 20.1094 24 19.125 24 18V16.0312C22.875 16.7812 21.2812 17.2969 19.5 17.625V20.625ZM9 13.5C4.03125 13.5 0 15.1875 0 17.25C0 19.3594 4.03125 21 9 21C13.9688 21 18 19.3594 18 17.25C18 15.1875 13.9688 13.5 9 13.5ZM19.2656 16.1719C22.0781 15.6562 24 14.6719 24 13.5V11.5312C22.3125 12.7031 19.4531 13.3125 16.4531 13.5C17.8125 14.1562 18.8438 15.0469 19.2656 16.1719Z" fill="black"/>
<path d="M54.56 26H50.456L43.592 15.608V26H39.488V9.152H43.592L50.456 19.592V9.152H54.56V26ZM68.0229 23.024H61.7349L60.7269 26H56.4309L62.5269 9.152H67.2789L73.3749 26H69.0309L68.0229 23.024ZM66.9669 19.856L64.8789 13.688L62.8149 19.856H66.9669ZM88.0702 14.576C88.0702 15.552 87.8462 16.448 87.3982 17.264C86.9502 18.064 86.2622 18.712 85.3342 19.208C84.4062 19.704 83.2542 19.952 81.8782 19.952H79.3342V26H75.2302V9.152H81.8782C83.2222 9.152 84.3582 9.384 85.2862 9.848C86.2142 10.312 86.9102 10.952 87.3742 11.768C87.8382 12.584 88.0702 13.52 88.0702 14.576ZM81.5662 16.688C82.3502 16.688 82.9342 16.504 83.3182 16.136C83.7022 15.768 83.8942 15.248 83.8942 14.576C83.8942 13.904 83.7022 13.384 83.3182 13.016C82.9342 12.648 82.3502 12.464 81.5662 12.464H79.3342V16.688H81.5662ZM100.695 23.024H94.4068L93.3988 26H89.1028L95.1988 9.152H99.9508L106.047 26H101.703L100.695 23.024ZM99.6388 19.856L97.5508 13.688L95.4868 19.856H99.6388ZM112.292 17.552C112.292 15.888 112.652 14.408 113.372 13.112C114.092 11.8 115.092 10.784 116.372 10.064C117.668 9.328 119.132 8.96 120.764 8.96C122.764 8.96 124.476 9.488 125.9 10.544C127.324 11.6 128.276 13.04 128.756 14.864H124.244C123.908 14.16 123.428 13.624 122.804 13.256C122.196 12.888 121.5 12.704 120.716 12.704C119.452 12.704 118.428 13.144 117.644 14.024C116.86 14.904 116.468 16.08 116.468 17.552C116.468 19.024 116.86 20.2 117.644 21.08C118.428 21.96 119.452 22.4 120.716 22.4C121.5 22.4 122.196 22.216 122.804 21.848C123.428 21.48 123.908 20.944 124.244 20.24H128.756C128.276 22.064 127.324 23.504 125.9 24.56C124.476 25.6 122.764 26.12 120.764 26.12C119.132 26.12 117.668 25.76 116.372 25.04C115.092 24.304 114.092 23.288 113.372 21.992C112.652 20.696 112.292 19.216 112.292 17.552ZM139.237 26.168C137.653 26.168 136.197 25.8 134.869 25.064C133.557 24.328 132.509 23.304 131.725 21.992C130.957 20.664 130.573 19.176 130.573 17.528C130.573 15.88 130.957 14.4 131.725 13.088C132.509 11.776 133.557 10.752 134.869 10.016C136.197 9.28 137.653 8.912 139.237 8.912C140.821 8.912 142.269 9.28 143.581 10.016C144.909 10.752 145.949 11.776 146.701 13.088C147.469 14.4 147.853 15.88 147.853 17.528C147.853 19.176 147.469 20.664 146.701 21.992C145.933 23.304 144.893 24.328 143.581 25.064C142.269 25.8 140.821 26.168 139.237 26.168ZM139.237 22.424C140.581 22.424 141.653 21.976 142.453 21.08C143.269 20.184 143.677 19 143.677 17.528C143.677 16.04 143.269 14.856 142.453 13.976C141.653 13.08 140.581 12.632 139.237 12.632C137.877 12.632 136.789 13.072 135.973 13.952C135.173 14.832 134.773 16.024 134.773 17.528C134.773 19.016 135.173 20.208 135.973 21.104C136.789 21.984 137.877 22.424 139.237 22.424ZM154.24 9.152V26H150.136V9.152H154.24ZM172.287 26H168.183L161.319 15.608V26H157.215V9.152H161.319L168.183 19.592V9.152H172.287V26ZM181.357 26.168C180.125 26.168 179.021 25.968 178.045 25.568C177.069 25.168 176.285 24.576 175.693 23.792C175.117 23.008 174.813 22.064 174.781 20.96H179.149C179.213 21.584 179.429 22.064 179.797 22.4C180.165 22.72 180.645 22.88 181.237 22.88C181.845 22.88 182.325 22.744 182.677 22.472C183.029 22.184 183.205 21.792 183.205 21.296C183.205 20.88 183.061 20.536 182.773 20.264C182.501 19.992 182.157 19.768 181.741 19.592C181.341 19.416 180.765 19.216 180.013 18.992C178.925 18.656 178.037 18.32 177.349 17.984C176.661 17.648 176.069 17.152 175.573 16.496C175.077 15.84 174.829 14.984 174.829 13.928C174.829 12.36 175.397 11.136 176.533 10.256C177.669 9.36 179.149 8.912 180.973 8.912C182.829 8.912 184.325 9.36 185.461 10.256C186.597 11.136 187.205 12.368 187.285 13.952H182.845C182.813 13.408 182.613 12.984 182.245 12.68C181.877 12.36 181.405 12.2 180.829 12.2C180.333 12.2 179.933 12.336 179.629 12.608C179.325 12.864 179.173 13.24 179.173 13.736C179.173 14.28 179.429 14.704 179.941 15.008C180.453 15.312 181.253 15.64 182.341 15.992C183.429 16.36 184.309 16.712 184.981 17.048C185.669 17.384 186.261 17.872 186.757 18.512C187.253 19.152 187.501 19.976 187.501 20.984C187.501 21.944 187.253 22.816 186.757 23.6C186.277 24.384 185.573 25.008 184.645 25.472C183.717 25.936 182.621 26.168 181.357 26.168Z" fill="black"/>
</svg>
