<svg width="24" height="24" viewBox="0 0 24 24" fill="none" xmlns="http://www.w3.org/2000/svg">
<path d="M13.3876 12L20.4188 3.61875C20.5367 3.47946 20.4376 3.26785 20.2554 3.26785H18.1179C17.992 3.26785 17.8715 3.3241 17.7885 3.42053L11.9894 10.3339L6.19025 3.42053C6.1099 3.3241 5.98936 3.26785 5.86079 3.26785H3.72329C3.54115 3.26785 3.44204 3.47946 3.5599 3.61875L10.5911 12L3.5599 20.3812C3.5335 20.4123 3.51656 20.4503 3.51109 20.4906C3.50563 20.531 3.51187 20.5721 3.52908 20.6091C3.54628 20.646 3.57372 20.6773 3.60815 20.6991C3.64257 20.7209 3.68254 20.7324 3.72329 20.7321H5.86079C5.98668 20.7321 6.10722 20.6759 6.19025 20.5795L11.9894 13.6661L17.7885 20.5795C17.8688 20.6759 17.9894 20.7321 18.1179 20.7321H20.2554C20.4376 20.7321 20.5367 20.5205 20.4188 20.3812L13.3876 12Z" fill="white"/>
</svg>
