<svg width="32" height="32" viewBox="0 0 32 32" fill="none" xmlns="http://www.w3.org/2000/svg">
<path d="M17.8499 16L27.2249 4.825C27.3821 4.63929 27.2499 4.35715 27.0071 4.35715H24.1571C23.9892 4.35715 23.8285 4.43215 23.7178 4.56072L15.9857 13.7786L8.25351 4.56072C8.14637 4.43215 7.98565 4.35715 7.81422 4.35715H4.96422C4.72137 4.35715 4.58922 4.63929 4.74637 4.825L14.1214 16L4.74637 27.175C4.71116 27.2164 4.68858 27.267 4.6813 27.3209C4.67401 27.3747 4.68233 27.4295 4.70527 27.4788C4.72821 27.5281 4.7648 27.5697 4.8107 27.5988C4.8566 27.6279 4.90989 27.6432 4.96422 27.6429H7.81422C7.98208 27.6429 8.1428 27.5679 8.25351 27.4393L15.9857 18.2214L23.7178 27.4393C23.8249 27.5679 23.9857 27.6429 24.1571 27.6429H27.0071C27.2499 27.6429 27.3821 27.3607 27.2249 27.175L17.8499 16Z" fill="black"/>
</svg>
