<svg width="20" height="20" viewBox="0 0 20 20" fill="none" xmlns="http://www.w3.org/2000/svg">
<path d="M10 20C4.477 20 0 15.523 0 10C0 4.477 4.477 0 10 0C15.523 0 20 4.477 20 10C20 15.523 15.523 20 10 20ZM10 18C12.1217 18 14.1566 17.1571 15.6569 15.6569C17.1571 14.1566 18 12.1217 18 10C18 7.87827 17.1571 5.84344 15.6569 4.34315C14.1566 2.84285 12.1217 2 10 2C7.87827 2 5.84344 2.84285 4.34315 4.34315C2.84285 5.84344 2 7.87827 2 10C2 12.1217 2.84285 14.1566 4.34315 15.6569C5.84344 17.1571 7.87827 18 10 18V18ZM9 10.792C8.4736 10.5623 8.04236 10.1583 7.77878 9.64797C7.51521 9.13767 7.43539 8.55217 7.55273 7.98994C7.67008 7.4277 7.97744 6.92302 8.42313 6.56075C8.86881 6.19847 9.42565 6.00071 10 6.00071C10.5744 6.00071 11.1312 6.19847 11.5769 6.56075C12.0226 6.92302 12.3299 7.4277 12.4473 7.98994C12.5646 8.55217 12.4848 9.13767 12.2212 9.64797C11.9576 10.1583 11.5264 10.5623 11 10.792V14H9V10.792Z" fill="white"/>
</svg>
