<svg width="25" height="26" viewBox="0 0 25 26" fill="none" xmlns="http://www.w3.org/2000/svg">
<path d="M12.5006 8.3125C9.91747 8.3125 7.81288 10.417 7.81288 13C7.81288 15.583 9.91747 17.6875 12.5006 17.6875C15.0837 17.6875 17.1883 15.583 17.1883 13C17.1883 10.417 15.0837 8.3125 12.5006 8.3125ZM24.5324 12.2432L19.9082 9.93359L21.544 5.03125C21.7638 4.36719 21.1338 3.7373 20.4746 3.96191L15.572 5.59766L13.2575 0.96875C12.945 0.34375 12.0562 0.34375 11.7437 0.96875L9.43405 5.59277L4.52659 3.95703C3.86249 3.7373 3.23258 4.36719 3.4572 5.02637L5.09302 9.92871L0.468773 12.2432C-0.156258 12.5557 -0.156258 13.4443 0.468773 13.7568L5.09302 16.0664L3.4572 20.9736C3.23746 21.6377 3.86737 22.2676 4.52659 22.043L9.42917 20.4072L11.7389 25.0312C12.0514 25.6562 12.9401 25.6562 13.2526 25.0312L15.5623 20.4072L20.4649 22.043C21.129 22.2627 21.7589 21.6328 21.5342 20.9736L19.8984 16.0713L24.5227 13.7617C25.1575 13.4443 25.1575 12.5557 24.5324 12.2432ZM16.9198 17.4189C14.4831 19.8555 10.5181 19.8555 8.08145 17.4189C5.6448 14.9824 5.6448 11.0176 8.08145 8.58105C10.5181 6.14453 14.4831 6.14453 16.9198 8.58105C19.3564 11.0176 19.3564 14.9824 16.9198 17.4189Z" fill="black"/>
</svg>
